<svg xmlns="http://www.w3.org/2000/svg" width="161.333" height="24.444" viewBox="0 0 161.333 24.444"><g transform="translate(677.01 -229.332)"><path d="M-677.01,229.337h6.84l6.323,11.613h.061V229.337h6.323v21.705h-6.506l-6.657-11.856h-.061v11.856h-6.323Z" transform="translate(0 -0.002)" fill="#fff"></path><path d="M-633.895,229.337h17.966V234.9h-11.278v2.705h10.245v5.168h-10.245v2.705h11.613v5.563h-18.3Z" transform="translate(-20.072 -0.002)" fill="#fff"></path><path d="M-593.85,229.337h11.886c5.715,0,6.931,3.222,6.931,5.442a4.471,4.471,0,0,1-2.675,4.256,5.27,5.27,0,0,1,3.77,5.411c0,4.347-3.8,6.6-7.6,6.6H-593.85Zm6.688,8.451h3.526c1.429,0,2.28-.365,2.28-1.794,0-1.095-.912-1.49-2.28-1.49h-3.526Zm0,8.086h3.921c1.368,0,2.615-.4,2.615-2.067,0-1.307-.79-1.976-2.34-1.976h-4.2Z" transform="translate(-38.714 -0.002)" fill="#fff"></path><path d="M-551.7,229.337h11.886c5.715,0,6.931,3.222,6.931,5.442a4.472,4.472,0,0,1-2.675,4.256,5.27,5.27,0,0,1,3.77,5.411c0,4.347-3.8,6.6-7.6,6.6H-551.7Zm6.688,8.451h3.526c1.429,0,2.28-.365,2.28-1.794,0-1.095-.912-1.49-2.28-1.49h-3.526Zm0,8.086h3.922c1.368,0,2.614-.4,2.614-2.067,0-1.307-.791-1.976-2.34-1.976h-4.2Z" transform="translate(-58.336 -0.002)" fill="#fff"></path><rect width="6.688" height="21.705" transform="translate(-587.51 229.335)" fill="#fff"></rect><path d="M-486.313,229.337h6.536l7.9,21.705H-478.8l-.912-3.1h-6.9l-.973,3.1h-6.719Zm5.259,13.954L-483,236.6h-.06l-2.1,6.688Z" transform="translate(-85.055 -0.002)" fill="#fff"></path><path d="M-424.195,229.332h6.74l-2.234,6.035-.056.02h-6.682Zm1.993,12.882-3.253,8.827H-432.2l4.415-11.979a31.736,31.736,0,0,1,3.015,1.507c1.431.829,2.564,1.645,2.564,1.645" transform="translate(-113.971)" fill="#fff" fill-rule="evenodd"></path><path d="M-394.727,229.333h6.74l-8,21.708h-1.978a26.144,26.144,0,0,0-.585-3.883,21.426,21.426,0,0,0-1.246-4.072Zm-6.035,21.708h-1.965l.765-2.076a7.631,7.631,0,0,1,.658,1.01,9.835,9.835,0,0,1,.542,1.067" transform="translate(-127.69 0)" fill="#fff" fill-rule="evenodd"></path><path d="M-411.06,260.115c-1.745-8.548-9.233-13.7-18.029-17.168h10.867c5.186,5.534,6.089,8.222,7.162,17.168" transform="translate(-115.417 -6.338)" fill="#fff" fill-rule="evenodd"></path></g></svg>