<?xml version="1.0" encoding="utf-8"?>
<!-- Generator: Adobe Illustrator 19.0.0, SVG Export Plug-In . SVG Version: 6.00 Build 0)  -->
<svg version="1.0" id="Layer_1" xmlns="http://www.w3.org/2000/svg" xmlns:xlink="http://www.w3.org/1999/xlink" x="0px" y="0px"
	 width="284px" height="41px" viewBox="0 0 284 41" style="enable-background:new 0 0 284 41;" xml:space="preserve">
<style type="text/css">
	.st0{fill:#701C45;}
	.st1{fill:#AB004F;}
</style>
<g id="XMLID_3_">
	<path class="st0" d="M68,12.7c0-3.9-0.7-6.6-4.6-6.6h-1.3V4.8H68c3.3,0,4.9,1,5.6,2.6h0.3c1.6-1.6,4.6-3.3,8.5-3.3
		c5.6,0,11.1,2.3,11.1,11.8v19.7h-5.9V15.9c0-6.6-3.6-8.8-7.2-8.8c-2.6,0-4.9,1.6-6.6,3.5v25H68V12.7z"/>
	<path class="st0" d="M118.8,25.1h-14.2c0,5.2,2.4,9,6.4,9c3.1,0,5-1.4,6.7-3.8l0.9,0.7c-2.1,3.6-5,5-8.6,5c-6.7,0-10-5.2-10-11.6
		c0-6.4,3.3-11.6,9.3-11.6c6.4,0,9.5,3.8,9.5,10.5L118.8,25.1z M114.6,23.2c0-5.2-1.7-8.3-5-8.3c-2.9,0-5,3.6-5,8.3H114.6z"/>
	<path class="st0" d="M142.6,35.6h-2.4l-1.7-1.9h-0.2c-1.2,1.2-3.3,2.4-6.2,2.4c-4,0-8.1-1.7-8.1-8.6V19c0-2.9-0.5-4.8-3.3-4.8h-0.5
		v-0.9h3.8c3.3,0,4.3,0.9,4.3,5.7v8.6c0,4.8,2.6,6.4,5.2,6.4c1.9,0,3.6-1.2,4.8-2.5V13.3h4.3V35.6z"/>
	<path class="st0" d="M150.2,15.2h-3.3v-1.9h3.3V9l2.4-2.9h1.9v7.1h5.7v1.9h-5.7v14.7c0,2.9,1.2,4.3,3.3,4.3c1.7,0,2.6-0.5,3.6-1
		l0.5,1c-1,0.7-2.6,1.9-5.9,1.9c-3.3,0-5.7-1.9-5.7-6.2V15.2z"/>
	<path class="st0" d="M166.6,19c0-2.9-0.5-4.8-3.3-4.8h-0.5v-1h3.8c2.4,0,3.6,0.7,4,2.1h0.2c1-1.2,2.9-2.6,5.7-2.6
		c0.9,0,2.1,0.2,2.9,0.7c0.7,0.5,1.2,1.2,1.7,2.1l-1.9,1.4c-0.7-0.9-2.1-1.4-3.8-1.4c-1.9,0-3.6,1-4.5,2.4v17.6h-4.3V19z"/>
	<path class="st0" d="M197.5,35.6l-1.7-2.1h-0.2c-1,1.2-3.1,2.6-6.7,2.6c-2.6,0-6.9-1.4-6.9-6.7c0-5.2,5.7-6.7,12.1-6.7h1.4
		c0-6.7-2.1-8.1-5-8.1c-2.6,0-4.5,1-5.2,4h-2.1c0-1.7,0-3.1,1.2-4.3c1.2-1.2,4.3-1.7,7.1-1.7c4.3,0,8.3,1.4,8.3,10v12.8H197.5z
		 M195.6,24.7h-1.4c-4.8,0-7.6,1.9-7.6,4.8c0,3.1,2.1,4.5,4.5,4.5c2.4,0,3.6-1.4,4.5-2.9V24.7z"/>
	<path class="st1" d="M211.3,15.2c1.2-1.2,3.3-2.4,6.2-2.4c2.4,0,4.5,0.7,5.7,3.3c1.7-2.1,4.5-3.3,7.1-3.3c3.6,0,6.7,1.7,6.7,8.6
		v14.3h-4.3V21.3c0-4.8-1.4-6.4-3.8-6.4c-1.9,0-4,1.7-5,3.1c0.2,0.7,0.2,2.4,0.2,3.3v14.3h-4.3V21.3c0-4.8-1.4-6.4-3.8-6.4
		c-1.9,0-3.6,1.2-4.8,2.5v18.2H207V19c0-2.9-0.5-4.8-3.3-4.8h-1v-1h4.3c2.4,0,3.6,0.7,4,1.9H211.3z"/>
	<path class="st1" d="M260.9,25.1h-14.2c0,5.2,2.4,9,6.4,9c3.1,0,5-1.4,6.7-3.8l0.9,0.7c-2.1,3.6-5,5-8.6,5c-6.7,0-10-5.2-10-11.6
		c0-6.4,3.3-11.6,9.3-11.6c6.4,0,9.5,3.8,9.5,10.5L260.9,25.1z M256.7,23.2c0-5.2-1.7-8.3-5-8.3c-2.9,0-5,3.6-5,8.3H256.7z"/>
	<path class="st1" d="M284,35.6h-2.4l-1.7-2.1h-0.2c-1,1.2-2.6,2.6-6.4,2.6c-5.7,0-8.6-5.2-8.6-11.6c0-6.4,2.9-11.6,9-11.6
		c2.6,0,4.5,0.7,5.9,1.4V9.9c0-2.9-0.5-4.8-3.3-4.8h-1v-1h4.3c3.3,0,4.3,1,4.3,5.7V35.6z M279.7,16.1c-1.4-0.7-3.1-1.4-4.5-1.4
		c-4.3,0-5.9,4.3-5.9,9.7c0,5.5,1.7,9.7,5.5,9.7c2.9,0,4-1.4,5-2.9V16.1z"/>
	<g id="XMLID_1_">
		<path id="XMLID_2_" class="st0" d="M3.3,6h0.2C4.7,5,7,3.7,9.8,3.7c4,0,8.2,1.8,8.2,8.7v9c1-1.1,3.2-2.2,5.9-2.2
			c2.4,0,4.5,0.7,5.7,3.3c1.7-2.1,4.6-3.3,7.2-3.3c2.8,0,5.3,1.1,6.3,4.9V9.4C43,4.3,39.6,0,35.5,0H6.9C4.3,0,2,1.7,0.7,4.3
			C2.1,4.5,2.9,5,3.3,6z"/>
		<path id="XMLID_6_" class="st0" d="M26,27.7c0-4.8-1.3-6.4-3.6-6.4c-1.8,0-3.4,1-4.4,2.3V27l0,0v14h8V27.7z"/>
		<path id="XMLID_7_" class="st0" d="M13,25.4c0-2.9-0.2-4.4-3-4.4H9v-1h4.3c0.1,0-0.3-0.3,0.7-0.3v-7.3C14,7.6,11.4,6,8.8,6
			C6.9,6,5,7.2,4,8.5V27H0v4.7C0,36.8,2.8,41,6.9,41H13V25.4z"/>
		<path id="XMLID_8_" class="st0" d="M39,27.7c0-4.8-1.4-6.4-3.8-6.4c-1.9,0-4.3,1.7-5.2,3.1c0.2,0.7,0,2.4,0,3.3V41h5.5
			c1.2,0,2.5-0.4,3.5-1.1V27.7z"/>
	</g>
</g>
</svg>
