<?xml version="1.0" encoding="utf-8"?>
<!-- Generator: Adobe Illustrator 25.0.0, SVG Export Plug-In . SVG Version: 6.00 Build 0)  -->
<svg version="1.1" id="Layer_1" xmlns="http://www.w3.org/2000/svg" xmlns:xlink="http://www.w3.org/1999/xlink" x="0px" y="0px"
	 viewBox="0 0 911 336" style="enable-background:new 0 0 911 336;" xml:space="preserve">
<style type="text/css">
	.st0{display:none;}
	.st1{display:inline;}
	.st2{fill:none;stroke:#C6C6C6;stroke-width:0.3;stroke-linecap:round;stroke-miterlimit:10;}
	.st3{fill:#2E2E2E;}
</style>
<g id="Layer_7" class="st0">
	<g class="st1">
		<line class="st2" x1="938.5" y1="458.8" x2="-111.5" y2="458.8"/>
		<line class="st2" x1="938.5" y1="437.8" x2="-111.5" y2="437.8"/>
		<line class="st2" x1="938.5" y1="416.8" x2="-111.5" y2="416.8"/>
		<line class="st2" x1="938.5" y1="395.8" x2="-111.5" y2="395.8"/>
		<line class="st2" x1="938.5" y1="374.8" x2="-111.5" y2="374.8"/>
		<line class="st2" x1="938.5" y1="353.8" x2="-111.5" y2="353.8"/>
		<line class="st2" x1="938.5" y1="332.8" x2="-111.5" y2="332.8"/>
		<line class="st2" x1="938.5" y1="311.8" x2="-111.5" y2="311.8"/>
		<line class="st2" x1="938.5" y1="290.8" x2="-111.5" y2="290.8"/>
		<line class="st2" x1="938.5" y1="269.8" x2="-111.5" y2="269.8"/>
		<line class="st2" x1="938.5" y1="248.8" x2="-111.5" y2="248.8"/>
		<line class="st2" x1="938.5" y1="227.8" x2="-111.5" y2="227.8"/>
		<line class="st2" x1="938.5" y1="206.8" x2="-111.5" y2="206.8"/>
		<line class="st2" x1="938.5" y1="185.8" x2="-111.5" y2="185.8"/>
		<line class="st2" x1="938.5" y1="164.8" x2="-111.5" y2="164.8"/>
		<line class="st2" x1="938.5" y1="143.8" x2="-111.5" y2="143.8"/>
		<line class="st2" x1="938.5" y1="122.8" x2="-111.5" y2="122.8"/>
		<line class="st2" x1="938.5" y1="101.8" x2="-111.5" y2="101.8"/>
		<line class="st2" x1="938.5" y1="80.8" x2="-111.5" y2="80.8"/>
		<line class="st2" x1="938.5" y1="59.8" x2="-111.5" y2="59.8"/>
		<line class="st2" x1="938.5" y1="38.8" x2="-111.5" y2="38.8"/>
		<line class="st2" x1="938.5" y1="17.8" x2="-111.5" y2="17.8"/>
		<line class="st2" x1="938.5" y1="-3.2" x2="-111.5" y2="-3.2"/>
		<line class="st2" x1="938.5" y1="-24.2" x2="-111.5" y2="-24.2"/>
		<line class="st2" x1="938.5" y1="-45.2" x2="-111.5" y2="-45.2"/>
	</g>
	<g class="st1">
		<line class="st2" x1="938.5" y1="-87.2" x2="938.5" y2="458.8"/>
		<line class="st2" x1="917.5" y1="-87.2" x2="917.5" y2="458.8"/>
		<line class="st2" x1="896.5" y1="-87.2" x2="896.5" y2="458.8"/>
		<line class="st2" x1="875.5" y1="-87.2" x2="875.5" y2="458.8"/>
		<line class="st2" x1="854.5" y1="-87.2" x2="854.5" y2="458.8"/>
		<line class="st2" x1="833.5" y1="-87.2" x2="833.5" y2="458.8"/>
		<line class="st2" x1="812.5" y1="-87.2" x2="812.5" y2="458.8"/>
		<line class="st2" x1="791.5" y1="-87.2" x2="791.5" y2="458.8"/>
		<line class="st2" x1="770.5" y1="-87.2" x2="770.5" y2="458.8"/>
		<line class="st2" x1="749.5" y1="-87.2" x2="749.5" y2="458.8"/>
		<line class="st2" x1="728.5" y1="-87.2" x2="728.5" y2="458.8"/>
		<line class="st2" x1="707.5" y1="-87.2" x2="707.5" y2="458.8"/>
		<line class="st2" x1="686.5" y1="-87.2" x2="686.5" y2="458.8"/>
		<line class="st2" x1="665.5" y1="-87.2" x2="665.5" y2="458.8"/>
		<line class="st2" x1="644.5" y1="-87.2" x2="644.5" y2="458.8"/>
		<line class="st2" x1="623.5" y1="-87.2" x2="623.5" y2="458.8"/>
		<line class="st2" x1="602.5" y1="-87.2" x2="602.5" y2="458.8"/>
		<line class="st2" x1="581.5" y1="-87.2" x2="581.5" y2="458.8"/>
		<line class="st2" x1="560.5" y1="-87.2" x2="560.5" y2="458.8"/>
		<line class="st2" x1="539.5" y1="-87.2" x2="539.5" y2="458.8"/>
		<line class="st2" x1="518.5" y1="-87.2" x2="518.5" y2="458.8"/>
		<line class="st2" x1="497.5" y1="-87.2" x2="497.5" y2="458.8"/>
		<line class="st2" x1="476.5" y1="-87.2" x2="476.5" y2="458.8"/>
		<line class="st2" x1="455.5" y1="-87.2" x2="455.5" y2="458.8"/>
		<line class="st2" x1="434.5" y1="-87.2" x2="434.5" y2="458.8"/>
	</g>
	<g class="st1">
		<line class="st2" x1="434.5" y1="-87.2" x2="434.5" y2="458.8"/>
		<line class="st2" x1="413.5" y1="-87.2" x2="413.5" y2="458.8"/>
		<line class="st2" x1="392.5" y1="-87.2" x2="392.5" y2="458.8"/>
		<line class="st2" x1="371.5" y1="-87.2" x2="371.5" y2="458.8"/>
		<line class="st2" x1="350.5" y1="-87.2" x2="350.5" y2="458.8"/>
		<line class="st2" x1="329.5" y1="-87.2" x2="329.5" y2="458.8"/>
		<line class="st2" x1="308.5" y1="-87.2" x2="308.5" y2="458.8"/>
		<line class="st2" x1="287.5" y1="-87.2" x2="287.5" y2="458.8"/>
		<line class="st2" x1="266.5" y1="-87.2" x2="266.5" y2="458.8"/>
		<line class="st2" x1="245.5" y1="-87.2" x2="245.5" y2="458.8"/>
		<line class="st2" x1="224.5" y1="-87.2" x2="224.5" y2="458.8"/>
		<line class="st2" x1="203.5" y1="-87.2" x2="203.5" y2="458.8"/>
		<line class="st2" x1="182.5" y1="-87.2" x2="182.5" y2="458.8"/>
		<line class="st2" x1="161.5" y1="-87.2" x2="161.5" y2="458.8"/>
		<line class="st2" x1="140.5" y1="-87.2" x2="140.5" y2="458.8"/>
		<line class="st2" x1="119.5" y1="-87.2" x2="119.5" y2="458.8"/>
		<line class="st2" x1="98.5" y1="-87.2" x2="98.5" y2="458.8"/>
		<line class="st2" x1="77.5" y1="-87.2" x2="77.5" y2="458.8"/>
		<line class="st2" x1="56.5" y1="-87.2" x2="56.5" y2="458.8"/>
		<line class="st2" x1="35.5" y1="-87.2" x2="35.5" y2="458.8"/>
		<line class="st2" x1="14.5" y1="-87.2" x2="14.5" y2="458.8"/>
		<line class="st2" x1="-6.5" y1="-87.2" x2="-6.5" y2="458.8"/>
		<line class="st2" x1="-27.5" y1="-87.2" x2="-27.5" y2="458.8"/>
		<line class="st2" x1="-48.5" y1="-87.2" x2="-48.5" y2="458.8"/>
		<line class="st2" x1="-69.5" y1="-87.2" x2="-69.5" y2="458.8"/>
	</g>
</g>
<g id="Layer_6">
	<g>
		<g>
			<g>
				<path class="st3" d="M479.3,80.8c-2.1,0-3.8,0.6-4.9,1.8c-1.1,1.2-1.7,2.8-1.7,5v48.7l-39.6-51.4c-1.2-1.5-2.2-2.5-3-3.2
					c-0.9-0.6-2.1-0.9-3.8-0.9c-1.9,0-3.3,0.6-4.5,1.8s-1.7,3-1.7,5.3v66c0,2.2,0.6,3.9,1.7,5.1c1.1,1.2,2.8,1.8,4.9,1.8
					s3.8-0.6,4.9-1.8c1.1-1.2,1.7-2.9,1.7-5.1v-48.8l39.6,51.5c1.2,1.5,2.3,2.6,3.3,3.2s2.3,1,4,1s3.2-0.6,4.2-1.8
					c1-1.2,1.5-2.8,1.5-4.9V87.6c0-2.1-0.5-3.8-1.7-5C483.1,81.4,481.4,80.8,479.3,80.8L479.3,80.8z"/>
				<path class="st3" d="M524.8,99c1,0.5,2,0.7,3,0.6c1-0.2,1.9-0.7,2.7-1.8l10.8-15.5c0.8-1.2,1.1-2.3,0.9-3.5s-0.7-2.1-1.5-2.9
					c-0.8-0.8-1.9-1.4-3-1.7s-2.3-0.2-3.4,0.2c-1.1,0.4-2,1.3-2.7,2.7l-8.4,16.5c-0.6,1.2-0.7,2.2-0.3,3.2
					C523.2,97.8,523.9,98.5,524.8,99L524.8,99z"/>
				<path class="st3" d="M537.9,107c-3.4-1.6-7.8-2.4-13.1-2.4c-2.6,0-5.5,0.3-8.6,0.9s-6.4,1.6-9.8,3c-1.4,0.5-2.4,1.3-3,2.4
					s-0.9,2.2-0.9,3.3s0.3,2.1,0.9,3.1c0.6,0.9,1.4,1.5,2.5,1.8c1.1,0.3,2.3,0.1,3.7-0.6c2.7-1.3,5.3-2.1,7.8-2.7
					c2.5-0.5,4.8-0.8,6.9-0.8c3.8,0,6.6,0.8,8.2,2.4c1.6,1.6,2.4,4.3,2.4,8v2.3H531c-7.8,0-14.1,0.5-18.7,1.6c-4.7,1-8,2.7-10.1,5
					c-2.1,2.3-3.1,5.5-3.1,9.5c0,3.2,0.9,6.2,2.6,8.8c1.7,2.6,4.1,4.6,7.2,6.1c3.1,1.5,6.6,2.3,10.5,2.3c3,0,5.6-0.5,7.9-1.6
					s4.2-2.5,5.7-4.4c0.9-1.1,1.6-2.4,2.2-3.8v2.4c0,2.3,0.6,4,1.7,5.3c1.1,1.2,2.8,1.8,4.8,1.8s3.7-0.6,4.8-1.8
					c1.1-1.2,1.7-3,1.7-5.3v-26.6c0-5.2-0.8-9.4-2.5-12.7S541.3,108.6,537.9,107L537.9,107z M533.3,145c-1.1,2-2.6,3.6-4.5,4.7
					c-1.9,1.1-4,1.7-6.5,1.7c-3,0-5.4-0.8-7.1-2.3c-1.7-1.6-2.5-3.6-2.5-6c0-1.9,0.6-3.4,1.7-4.5c1.1-1.1,3.1-1.8,5.8-2.3
					c2.7-0.4,6.4-0.7,11-0.7h3.8v2.4C534.9,140.7,534.4,143,533.3,145L533.3,145z"/>
				<path class="st3" d="M604.5,107c-2.8-1.6-6.4-2.4-10.8-2.4s-8.3,1-11.7,3.1c-2.5,1.5-4.5,3.4-6,5.9V87.8c0-2.3-0.6-4-1.8-5.2
					c-1.2-1.2-2.9-1.8-5.2-1.8s-3.9,0.6-5.1,1.8s-1.8,2.9-1.8,5.2v65.8c0,2.3,0.6,4,1.8,5.3s2.9,1.8,5.1,1.8c4.7,0,7-2.4,7-7.1
					v-24.3c0-4.2,1.2-7.6,3.6-10.1c2.4-2.6,5.6-3.8,9.7-3.8c3.3,0,5.8,1,7.4,2.9c1.6,1.9,2.4,5,2.4,9.2v26.2c0,2.3,0.6,4,1.8,5.3
					c1.2,1.2,2.9,1.8,5.2,1.8s3.9-0.6,5.1-1.8s1.8-3,1.8-5.3v-26.8c0-5-0.7-9.2-2.1-12.5C609.4,111.1,607.3,108.6,604.5,107
					L604.5,107z"/>
				<path class="st3" d="M661.3,105.7c-0.9-0.9-2.2-1.3-3.7-1.2c-5,0.4-9,1.8-12.1,4.1c-2.2,1.7-3.8,3.9-5,6.6v-3.5
					c0-2.3-0.6-4-1.8-5.2s-2.8-1.8-5-1.8s-3.8,0.6-5,1.8s-1.8,2.9-1.8,5.2v41.9c0,2.3,0.6,4,1.8,5.3c1.2,1.2,3,1.8,5.3,1.8
					s4-0.6,5.2-1.8s1.8-3,1.8-5.3v-22.9c0-4.2,1.1-7.5,3.4-9.8c2.3-2.3,5.7-3.7,10.2-4.2l2.4-0.2c2-0.2,3.5-0.9,4.5-2.1
					c1-1.1,1.4-2.6,1.3-4.5C662.8,108.1,662.3,106.7,661.3,105.7L661.3,105.7z"/>
				<path class="st3" d="M706.2,107c-3.4-1.6-7.8-2.4-13.1-2.4c-2.6,0-5.5,0.3-8.6,0.9s-6.4,1.6-9.8,3c-1.4,0.5-2.4,1.3-3,2.4
					c-0.6,1.1-0.9,2.2-0.9,3.3s0.3,2.1,0.9,3.1c0.6,0.9,1.4,1.5,2.5,1.8s2.3,0.1,3.7-0.6c2.7-1.3,5.3-2.1,7.8-2.7
					c2.5-0.5,4.8-0.8,6.9-0.8c3.8,0,6.6,0.8,8.2,2.4c1.6,1.6,2.4,4.3,2.4,8v2.3h-3.9c-7.8,0-14.1,0.5-18.7,1.6c-4.7,1-8,2.7-10.1,5
					c-2.1,2.3-3.1,5.5-3.1,9.5c0,3.2,0.9,6.2,2.6,8.8c1.7,2.6,4.1,4.6,7.2,6.1c3.1,1.5,6.6,2.3,10.5,2.3c3,0,5.6-0.5,7.9-1.6
					s4.2-2.5,5.7-4.4c0.9-1.1,1.6-2.4,2.2-3.8v2.4c0,2.3,0.6,4,1.7,5.3c1.1,1.2,2.8,1.8,4.8,1.8s3.7-0.6,4.8-1.8
					c1.1-1.2,1.7-3,1.7-5.3v-26.6c0-5.2-0.8-9.4-2.5-12.7S709.6,108.6,706.2,107L706.2,107z M701.6,145c-1.1,2-2.6,3.6-4.5,4.7
					c-1.9,1.1-4,1.7-6.5,1.7c-3,0-5.4-0.8-7.1-2.3c-1.7-1.6-2.5-3.6-2.5-6c0-1.9,0.6-3.4,1.7-4.5c1.1-1.1,3.1-1.8,5.8-2.3
					c2.7-0.4,6.4-0.7,11-0.7h3.8v2.4C703.3,140.7,702.8,143,701.6,145L701.6,145z"/>
				<path class="st3" d="M775.7,80.8c-2.2,0-3.9,0.6-5.1,1.8s-1.8,2.9-1.8,5.2v26c-1.3-2.3-3.2-4.3-5.6-5.9
					c-3.4-2.2-7.3-3.3-11.8-3.3c-4.7,0-8.9,1.2-12.5,3.4c-3.6,2.3-6.4,5.5-8.4,9.7c-2,4.2-3,9.2-3,15c0,5.8,1,10.8,3,15
					s4.8,7.5,8.4,9.8c3.6,2.3,7.7,3.4,12.5,3.4s8.6-1.1,12-3.4c2.4-1.6,4.3-3.7,5.5-6.1v2.3c0,2.3,0.6,4,1.8,5.3s2.9,1.8,5.1,1.8
					s3.9-0.6,5.1-1.8s1.8-3,1.8-5.3V87.9c0-2.3-0.6-4-1.8-5.2C779.6,81.5,777.9,80.9,775.7,80.8L775.7,80.8z M762.5,148.5
					c-2.1,1.3-4.5,2-7.2,2c-4.1,0-7.5-1.5-10-4.5c-2.5-3-3.8-7.4-3.8-13.2c0-3.9,0.6-7.2,1.7-9.8c1.2-2.6,2.8-4.6,4.8-5.9
					s4.5-1.9,7.2-1.9c4.1,0,7.5,1.5,10,4.4c2.5,2.9,3.8,7.3,3.8,13.2c0,3.9-0.6,7.2-1.7,9.8C766.2,145.1,764.6,147.1,762.5,148.5
					L762.5,148.5z"/>
				<path class="st3" d="M839.4,107c-2.8-1.6-6.4-2.4-10.8-2.4s-8.3,1-11.7,3.1c-2.7,1.6-4.8,3.7-6.4,6.5v-2.3c0-2.3-0.6-4-1.8-5.2
					s-2.8-1.8-5-1.8s-3.8,0.6-5,1.8s-1.8,2.9-1.8,5.2v41.9c0,2.3,0.6,4,1.8,5.3s2.9,1.8,5.1,1.8c4.7,0,7-2.4,7-7.1v-24.3
					c0-4.2,1.2-7.6,3.6-10.1c2.4-2.6,5.6-3.8,9.7-3.8c3.3,0,5.8,1,7.4,2.9c1.6,1.9,2.4,5,2.4,9.2v26.2c0,2.3,0.6,4,1.8,5.3
					c1.2,1.2,2.9,1.8,5.2,1.8s3.9-0.6,5.1-1.8s1.8-3,1.8-5.3v-26.8c0-5-0.7-9.2-2.1-12.5C844.3,111.1,842.2,108.7,839.4,107
					L839.4,107z"/>
				<path class="st3" d="M885.7,99c1,0.5,2,0.7,3,0.6c1-0.2,1.9-0.7,2.7-1.8l10.8-15.5c0.8-1.2,1.1-2.3,0.9-3.5s-0.7-2.1-1.5-2.9
					c-0.8-0.8-1.9-1.4-3-1.7s-2.3-0.2-3.4,0.2c-1.1,0.4-2,1.3-2.7,2.7L884,93.6c-0.6,1.2-0.7,2.2-0.3,3.2
					C884.1,97.8,884.8,98.5,885.7,99L885.7,99z"/>
				<path class="st3" d="M909.1,147.4c-0.7-0.7-1.7-1.2-2.8-1.3s-2.5,0.3-4.1,1.2c-2.1,1.2-4.4,2-6.8,2.5c-2.4,0.5-4.6,0.7-6.5,0.7
					c-5.5,0-9.7-1.5-12.6-4.5c-2.3-2.4-3.6-5.7-4.1-10h33.5c1.7,0,3-0.4,3.9-1.1s1.4-1.7,1.4-3.1c0-4.2-0.6-8-1.7-11.4
					c-1.2-3.4-2.8-6.2-5-8.6c-2.2-2.4-4.8-4.2-7.9-5.4s-6.5-1.9-10.4-1.9c-5.2,0-9.9,1.2-14,3.6c-4.1,2.4-7.3,5.7-9.6,9.9
					s-3.5,9.1-3.5,14.7c0,5.6,1.2,10.8,3.6,15c2.4,4.2,5.8,7.5,10.2,9.8s9.7,3.4,15.8,3.4c2.9,0,6-0.4,9.4-1.2
					c3.4-0.8,6.3-2,8.9-3.6c1.3-0.8,2.3-1.8,2.8-2.9c0.5-1.1,0.8-2.2,0.6-3.3S909.8,148.1,909.1,147.4L909.1,147.4z M878.7,116.1
					c2.2-1.4,4.8-2.2,7.9-2.2c2.8,0,5.2,0.6,7,1.8c1.9,1.2,3.3,3,4.3,5.3c0.8,1.9,1.3,4.2,1.4,6.9h-27.2c0.3-2.1,0.7-4,1.5-5.7
					C874.8,119.6,876.5,117.6,878.7,116.1L878.7,116.1z"/>
			</g>
			<g>
				<path class="st3" d="M495.5,186.4c-0.3-1.4-1-2.5-2-3.3c-1.1-0.8-2.4-1.2-4-1.2c-2,0-3.5,0.5-4.7,1.4c-1.1,0.9-2.1,2.3-2.9,4.1
					l-23.8,55.4l-23.9-55.3c-0.7-1.9-1.6-3.2-2.7-4.2c-1.1-0.9-2.7-1.4-4.8-1.4c-1.6,0-3,0.4-4.2,1.2s-2,1.9-2.3,3.3
					c-0.4,1.4-0.1,3,0.7,4.9l28.9,64.9c0.8,1.9,1.9,3.2,3.2,4.2c1.3,0.9,2.9,1.4,4.9,1.4s3.7-0.5,4.9-1.4c1.2-0.9,2.2-2.3,3-4.2
					l28.9-64.9C495.6,189.4,495.8,187.8,495.5,186.4L495.5,186.4z"/>
				<path class="st3" d="M536.9,209c-4.1-2.3-9-3.4-14.6-3.4c-4.2,0-8,0.6-11.4,1.9c-3.4,1.3-6.3,3.2-8.8,5.6
					c-2.4,2.5-4.3,5.4-5.6,8.9s-1.9,7.3-1.9,11.7c0,5.8,1.1,10.8,3.4,15s5.5,7.5,9.6,9.8s9,3.4,14.6,3.4c4.2,0,8-0.6,11.4-1.9
					c3.4-1.3,6.3-3.2,8.8-5.6s4.3-5.4,5.6-8.9c1.3-3.5,1.9-7.4,1.9-11.8c0-5.8-1.2-10.8-3.4-15S541,211.3,536.9,209L536.9,209z
					 M534.3,243.5c-1.2,2.6-2.8,4.6-4.8,5.9c-2.1,1.3-4.5,2-7.2,2c-4.1,0-7.5-1.5-10-4.5c-2.5-3-3.8-7.4-3.8-13.2
					c0-3.9,0.6-7.2,1.7-9.8s2.8-4.6,4.8-5.9s4.5-1.9,7.2-1.9c4.1,0,7.5,1.5,10,4.4c2.5,2.9,3.8,7.3,3.8,13.2
					C536,237.6,535.4,240.9,534.3,243.5L534.3,243.5z"/>
				<path class="st3" d="M598.5,250.5h-24.8l26.3-32.9c1-1.1,1.7-2.3,2-3.6c0.3-1.3,0.3-2.4-0.1-3.6c-0.3-1.1-1-2-2-2.7
					c-1-0.7-2.4-1.1-4-1.1h-32.8c-1.7,0-3,0.4-3.9,1.3s-1.4,2.2-1.4,3.9s0.5,2.9,1.4,3.8c0.9,0.9,2.2,1.4,3.9,1.4h23.5l-26.1,32.7
					c-1,1.2-1.7,2.4-2,3.7c-0.3,1.3-0.3,2.5-0.1,3.6s0.9,2,1.8,2.7c0.9,0.7,2.1,1,3.5,1h34.7c1.7,0,3-0.5,3.9-1.4s1.4-2.2,1.4-3.8
					C603.8,252.2,602,250.5,598.5,250.5L598.5,250.5z"/>
				<path class="st3" d="M619.9,205.9c-2.2,0-3.9,0.6-5.1,1.9c-1.2,1.3-1.8,3.2-1.8,5.6v40.7c0,2.4,0.6,4.2,1.8,5.5
					c1.2,1.3,2.9,2,5.1,2s4-0.7,5.2-2s1.8-3.2,1.8-5.5v-40.7c0-2.4-0.6-4.3-1.8-5.6C623.8,206.6,622.1,205.9,619.9,205.9z"/>
				<path class="st3" d="M619.9,181c-2.6,0-4.6,0.6-6,1.9c-1.4,1.3-2.2,3.1-2.2,5.4s0.7,4.1,2.2,5.4c1.4,1.3,3.5,1.9,6,1.9
					s4.7-0.6,6.1-1.9c1.4-1.3,2.1-3.1,2.1-5.4s-0.7-4.2-2.1-5.4C624.6,181.6,622.6,181,619.9,181z"/>
				<path class="st3" d="M686.4,181.9c-2.2,0-3.9,0.6-5.1,1.8c-1.2,1.2-1.8,2.9-1.8,5.2v26c-1.3-2.4-3.2-4.3-5.6-5.9
					c-3.4-2.2-7.3-3.3-11.8-3.3c-4.7,0-8.9,1.1-12.5,3.4c-3.6,2.3-6.4,5.5-8.4,9.7c-2,4.2-3,9.2-3,15s1,10.8,3,15s4.8,7.5,8.4,9.8
					c3.6,2.3,7.7,3.4,12.5,3.4s8.6-1.1,12-3.4c2.4-1.6,4.3-3.7,5.5-6.1v2.3c0,2.3,0.6,4.1,1.8,5.3c1.2,1.2,2.9,1.8,5.1,1.8
					s3.9-0.6,5.1-1.8s1.8-3,1.8-5.3v-65.8c0-2.3-0.6-4-1.8-5.2C690.3,182.5,688.6,181.9,686.4,181.9L686.4,181.9z M673.2,249.5
					c-2.1,1.3-4.5,2-7.2,2c-4.1,0-7.5-1.5-10-4.5c-2.5-3-3.8-7.4-3.8-13.2c0-3.9,0.6-7.2,1.7-9.8c1.2-2.6,2.8-4.6,4.8-5.9
					s4.5-1.9,7.2-1.9c4.1,0,7.5,1.5,10,4.4c2.5,2.9,3.8,7.3,3.8,13.2c0,3.9-0.6,7.2-1.7,9.8C676.9,246.2,675.3,248.1,673.2,249.5
					L673.2,249.5z"/>
				<path class="st3" d="M733.2,250.4c-0.5,0.1-1,0.1-1.5,0.2c-0.5,0-1.1,0.1-1.7,0.1c-2.7,0-4.7-0.8-6.2-2.4
					c-1.4-1.6-2.2-4.1-2.2-7.5v-51.8c0-2.3-0.6-4-1.8-5.2c-1.2-1.2-2.9-1.8-5.2-1.8s-3.9,0.6-5.1,1.8c-1.2,1.2-1.8,2.9-1.8,5.2v52.4
					c0,6.8,1.5,11.9,4.7,15.5c3.1,3.5,7.7,5.3,13.8,5.3c0.8,0,1.6,0,2.4-0.1c0.8-0.1,1.6-0.1,2.3-0.2c1.7-0.2,2.9-0.9,3.7-1.9
					s1.1-2.5,1.1-4.3c0-2.1-0.2-3.6-0.5-4.3C734.9,250.5,734.2,250.2,733.2,250.4L733.2,250.4z"/>
				<path class="st3" d="M791.6,218.8c-2.3-4.2-5.5-7.5-9.6-9.8s-9-3.4-14.6-3.4c-4.2,0-8,0.6-11.4,1.9c-3.4,1.3-6.3,3.2-8.8,5.6
					c-2.4,2.5-4.3,5.4-5.6,8.9s-1.9,7.3-1.9,11.7c0,5.8,1.2,10.8,3.4,15s5.5,7.5,9.6,9.8s9,3.4,14.6,3.4c4.2,0,8-0.6,11.4-1.9
					c3.4-1.3,6.3-3.2,8.8-5.6s4.3-5.4,5.6-8.9c1.3-3.5,1.9-7.4,1.9-11.8C795,228,793.9,223,791.6,218.8L791.6,218.8z M779.3,243.5
					c-1.2,2.6-2.8,4.6-4.8,5.9c-2.1,1.3-4.5,2-7.2,2c-4.1,0-7.5-1.5-10-4.5c-2.5-3-3.8-7.4-3.8-13.2c0-3.9,0.6-7.2,1.7-9.8
					c1.2-2.6,2.8-4.6,4.8-5.9s4.5-1.9,7.2-1.9c4.1,0,7.5,1.5,10,4.4c2.5,2.9,3.8,7.3,3.8,13.2C781.1,237.6,780.5,240.9,779.3,243.5
					L779.3,243.5z"/>
			</g>
		</g>
		<path class="st3" d="M378,335.3c-1.7,0-3-1.3-3-3V4.2c0-1.7,1.3-3,3-3s3,1.3,3,3v328.1C381,333.9,379.7,335.3,378,335.3L378,335.3
			z"/>
		<path class="st3" d="M315,189c-11.6,0-21-9.4-21-21V21c0-11.6,9.4-21,21-21s21,9.4,21,21v147C336,179.6,326.6,189,315,189z"/>
		<path class="st3" d="M333.5,240.9c0.2-0.3,0.3-0.6,0.5-1s0.3-0.7,0.4-1c0.1-0.3,0.2-0.6,0.3-0.8c0.1-0.4,0.3-0.8,0.4-1.1
			c0.1-0.3,0.1-0.5,0.2-0.8c0.1-0.4,0.2-0.8,0.3-1.2c0-0.3,0.1-0.6,0.1-0.9c0.1-0.4,0.1-0.7,0.1-1.1c0-0.3,0.1-0.6,0.1-1
			c0-0.3,0-0.6,0-1c0-0.4,0-0.7,0-1.1c0-0.3,0-0.6-0.1-0.9c0-0.4-0.1-0.8-0.1-1.2c0-0.3-0.1-0.5-0.1-0.8c-0.1-0.4-0.2-0.8-0.2-1.2
			c-0.1-0.3-0.1-0.6-0.2-0.9c-0.1-0.4-0.2-0.7-0.3-1s-0.2-0.7-0.4-1c-0.1-0.3-0.2-0.6-0.4-0.8c-0.2-0.4-0.4-0.8-0.6-1.2
			c-0.1-0.1-0.1-0.3-0.2-0.4c0-0.1-0.1-0.1-0.1-0.2c-0.2-0.4-0.5-0.8-0.7-1.1c-0.1-0.2-0.3-0.4-0.4-0.6c-0.2-0.3-0.5-0.6-0.7-0.9
			c-0.2-0.2-0.4-0.5-0.6-0.7c-0.2-0.2-0.4-0.4-0.7-0.7c-0.3-0.3-0.6-0.6-0.9-0.8c-0.2-0.2-0.4-0.3-0.6-0.5c-0.4-0.3-0.7-0.6-1.1-0.9
			c-0.1-0.1-0.1-0.1-0.2-0.1l-294-210c-0.1,0-0.1-0.1-0.2-0.1c-0.3-0.2-0.7-0.5-1.1-0.7c-0.2-0.1-0.5-0.3-0.7-0.4
			c-0.4-0.2-0.7-0.4-1.1-0.6c-0.3-0.1-0.5-0.3-0.8-0.4c-0.3-0.1-0.7-0.3-1-0.4C28,1.2,27.7,1.1,27.4,1c-0.3-0.1-0.6-0.2-1-0.3
			c-0.4-0.1-0.7-0.2-1.1-0.3c-0.3-0.1-0.6-0.1-0.9-0.2c-0.4-0.1-0.8-0.1-1.2-0.2c-0.3,0-0.5,0-0.8-0.1C22.1,0,21.7,0,21.3,0
			c-0.1,0-0.2,0-0.2,0c-0.2,0-0.4,0-0.6,0c-0.4,0-0.8,0-1.1,0.1c-0.4,0-0.7,0.1-1,0.1c-0.3,0-0.6,0.1-1,0.2
			c-0.4,0.1-0.8,0.2-1.1,0.3c-0.3,0.1-0.6,0.1-0.8,0.2c-0.4,0.1-0.8,0.2-1.1,0.4c-0.3,0.1-0.6,0.2-0.8,0.3c-0.4,0.1-0.7,0.3-1,0.4
			c-0.3,0.1-0.6,0.3-0.9,0.4c-0.3,0.2-0.6,0.3-0.9,0.5C10.2,3,9.9,3.2,9.6,3.4C9.4,3.6,9.1,3.7,8.9,3.9C8.6,4.1,8.3,4.3,8,4.6
			C7.7,4.8,7.5,5,7.3,5.2C7,5.4,6.7,5.7,6.4,5.9C6.2,6.1,6,6.4,5.7,6.6C5.5,6.9,5.3,7.1,5.1,7.4C4.8,7.7,4.6,8,4.3,8.3
			C4.2,8.5,4.1,8.6,3.9,8.8c0,0.1-0.1,0.1-0.1,0.2c-0.2,0.4-0.5,0.7-0.7,1.1c-0.1,0.2-0.3,0.4-0.4,0.7c-0.2,0.4-0.4,0.7-0.6,1.1
			c-0.1,0.3-0.3,0.5-0.4,0.8c-0.1,0.3-0.3,0.7-0.4,1C1.2,14,1.1,14.3,1,14.6c-0.1,0.3-0.2,0.6-0.3,0.9c-0.1,0.4-0.2,0.7-0.3,1.1
			c-0.1,0.3-0.1,0.6-0.2,0.9c-0.1,0.4-0.1,0.8-0.2,1.2c0,0.3,0,0.5-0.1,0.8c0,0.4-0.1,0.9-0.1,1.3c0,0.1,0,0.2,0,0.2v146.2
			c0,11.6,9.4,21,21,21s21-9.4,21-21V61.8L276.1,229L168,290.8L31.4,212.8c-10.1-5.8-22.9-2.3-28.6,7.8s-2.3,22.9,7.8,28.6l146.9,84
			c0.8,0.4,1.6,0.8,2.4,1.2c2.6,1.1,5.4,1.6,8.1,1.6c0,0,0,0,0,0s0,0,0,0c2.8,0,5.6-0.6,8.3-1.7c0.7-0.3,1.5-0.7,2.2-1.1l146.9-83.9
			c0.6-0.3,1.2-0.7,1.7-1.1c0.1,0,0.1-0.1,0.2-0.1c0.5-0.4,1-0.8,1.5-1.2c0.1-0.1,0.2-0.2,0.3-0.2c0.4-0.4,0.8-0.7,1.1-1.1
			c0.1-0.1,0.2-0.2,0.2-0.2c0.4-0.4,0.7-0.8,1.1-1.3c0.1-0.2,0.3-0.3,0.4-0.5c0.1-0.1,0.1-0.2,0.2-0.3c0.1-0.1,0.2-0.3,0.3-0.4
			c0.2-0.4,0.5-0.7,0.7-1.1C333.2,241.4,333.4,241.2,333.5,240.9L333.5,240.9z"/>
	</g>
</g>
</svg>
