<?xml version="1.0" encoding="utf-8"?>
<!-- Generator: Adobe Illustrator 25.0.0, SVG Export Plug-In . SVG Version: 6.00 Build 0)  -->
<svg version="1.1" id="Layer_1" xmlns="http://www.w3.org/2000/svg" xmlns:xlink="http://www.w3.org/1999/xlink" x="0px" y="0px"
	 viewBox="0 0 602.3 112.62" style="enable-background:new 0 0 602.3 112.62;" xml:space="preserve">
<style type="text/css">
	.st0{fill:#0F0F0F;}
	.st1{fill:#E20000;}
	.st2{fill:#F70202;}
</style>
<g>
	<path class="st0" d="M36.45,97.42c0,4.67-0.02,9.35,0.02,14.02c0.01,0.84-0.11,1.19-1.08,1.15c-1.99-0.09-4-0.07-5.99-0.01
		c-0.77,0.02-0.92-0.23-0.91-0.94c0.04-3.23-0.03-6.47,0.04-9.71c0.02-1-0.33-1.14-1.2-1.13c-6.12,0.03-12.23,0.04-18.35,0
		c-0.86-0.01-1.15,0.15-1.13,1.09c0.07,3.23,0,6.47,0.04,9.71c0.01,0.77-0.18,1.01-0.98,0.99c-2-0.06-4-0.04-6-0.01
		C0.31,112.58,0,112.52,0,111.76c0.03-9.43-0.02-18.85,0.03-28.28c0.02-3.95,3.13-7.22,7.13-7.29c7.35-0.13,14.71-0.14,22.06-0.01
		c4.17,0.08,7.18,3.39,7.22,7.58C36.49,88.32,36.45,92.87,36.45,97.42z M18.2,92.91c3.15,0,6.31-0.02,9.46,0.02
		c0.68,0.01,0.87-0.18,0.86-0.86c-0.04-2.39-0.04-4.79,0-7.18c0.01-0.7-0.22-0.86-0.88-0.86c-6.31,0.02-12.62,0.02-18.93,0
		c-0.67,0-0.88,0.19-0.86,0.87c0.04,2.35,0.06,4.71,0,7.06c-0.02,0.81,0.23,0.99,1,0.98C11.97,92.88,15.08,92.91,18.2,92.91z"/>
	<path class="st1" d="M455.56,94.22c0,3.55,0,7.11,0,10.66c0,4.26-3.1,7.62-7.36,7.68c-7.23,0.09-14.47,0.08-21.7-0.01
		c-3.98-0.05-6.95-2.92-7.24-6.86c-0.29-3.91-0.08-7.82-0.11-11.73c-0.03-3.27,0.12-6.55-0.02-9.82c-0.2-4.57,3.53-8.1,8.05-8.04
		c6.47,0.09,12.95,0.03,19.42,0.04c1.11,0,2.22-0.04,3.33,0.23c3.03,0.74,5.78,4.11,5.65,7.18
		C455.44,87.1,455.55,90.66,455.56,94.22C455.55,94.22,455.56,94.22,455.56,94.22z M437.21,104.65c3.12,0,6.23-0.03,9.35,0.02
		c0.84,0.01,1.09-0.25,1.09-1.09c-0.03-6.15-0.02-12.3,0-18.45c0-0.82-0.26-1.11-1.1-1.1c-6.19,0.03-12.39,0.03-18.58,0
		c-0.8,0-1.02,0.27-1.01,1.04c0.03,6.19,0.03,12.38,0,18.57c0,0.79,0.24,1.03,1.02,1.02C431.06,104.63,434.14,104.65,437.21,104.65z
		"/>
	<path class="st0" d="M365.75,83.29c5.76,0,11.51-0.08,17.27,0.03c3.74,0.07,6.77,3.3,6.79,7.02c0.03,7.11,0,14.22,0.03,21.33
		c0,0.78-0.24,0.92-0.95,0.9c-1.92-0.05-3.84-0.06-5.76,0.01c-0.81,0.03-0.99-0.24-0.98-1.01c0.03-6.47,0-12.94,0.04-19.41
		c0-0.89-0.15-1.23-1.15-1.2c-2.52,0.08-5.04,0.06-7.55,0c-0.84-0.02-1.05,0.22-1.05,1.06c0.04,6.47,0.01,12.94,0.04,19.41
		c0,0.85-0.14,1.19-1.09,1.15c-1.88-0.08-3.76-0.08-5.64,0c-0.89,0.03-1.13-0.2-1.12-1.11c0.04-6.39-0.01-12.78,0.05-19.17
		c0.01-1.14-0.34-1.36-1.39-1.33c-2.44,0.07-4.88,0.06-7.32,0c-0.84-0.02-1.06,0.21-1.05,1.05c0.04,6.39-0.02,12.78,0.05,19.17
		c0.01,1.21-0.35,1.45-1.46,1.39c-1.79-0.1-3.6-0.05-5.4-0.02c-0.62,0.01-0.91-0.09-0.91-0.82c0.02-9.23,0.03-18.45,0-27.68
		c0-0.85,0.4-0.85,1.02-0.85c5.84,0.01,11.67,0.01,17.51,0.01C365.75,83.25,365.75,83.27,365.75,83.29z"/>
	<path class="st1" d="M530.88,76.14c4.68,0,9.35,0.02,14.03-0.02c0.88-0.01,1.09,0.28,1.07,1.09c-0.05,1.88-0.06,3.76,0.01,5.63
		c0.03,0.93-0.23,1.24-1.2,1.24c-8.19-0.04-16.39-0.03-24.58-0.03c-2.4,0-2.64,0.23-2.64,2.57c0,5.15,0.01,10.3-0.01,15.46
		c-0.01,2.24,0.32,2.59,2.53,2.59c8.19,0,16.39,0.02,24.58-0.03c1.06-0.01,1.39,0.27,1.34,1.34c-0.09,1.71-0.09,3.44,0,5.15
		c0.07,1.18-0.37,1.51-1.49,1.5c-6-0.04-11.99-0.02-17.99-0.02c-3,0-6,0-8.99,0c-4.8,0-7.96-3.49-7.86-8.3
		c0.13-6.63,0.08-13.26,0.02-19.89c-0.02-2.18,0.45-4.09,1.92-5.74c1.47-1.65,3.3-2.5,5.48-2.51
		C521.68,76.12,526.28,76.14,530.88,76.14C530.88,76.14,530.88,76.14,530.88,76.14z"/>
	<path class="st1" d="M567.06,94.26c0-5.59,0.03-11.19-0.02-16.78c-0.01-1.14,0.35-1.42,1.43-1.37c1.83,0.09,3.68,0.05,5.52,0.02
		c0.79-0.01,1.02,0.28,1.01,1.06c-0.04,3.91,0.01,7.83-0.04,11.74c-0.01,1.06,0.27,1.52,1.43,1.44c1.47-0.1,2.96-0.09,4.43,0
		c0.96,0.06,1.58-0.31,2.15-1c3.44-4.14,6.9-8.27,10.34-12.41c0.43-0.52,0.89-0.86,1.62-0.85c2.12,0.03,4.24,0.02,6.36,0
		c0.7-0.01,0.97,0.2,1,0.96c0.04,1.13-0.18,2.03-0.96,2.93c-3.7,4.29-7.32,8.65-10.98,12.98c-1.16,1.37-1.15,1.37,0.25,3.03
		c3.71,4.38,7.38,8.81,11.11,13.17c0.8,0.94,0.5,1.95,0.51,2.96c0,0.43-0.42,0.42-0.74,0.42c-2.28,0-4.56-0.01-6.84-0.02
		c-0.52,0-0.88-0.28-1.21-0.67c-3.53-4.23-7.07-8.44-10.59-12.68c-0.47-0.57-0.96-0.89-1.72-0.87c-1.6,0.03-3.2,0.05-4.8-0.01
		c-1.02-0.04-1.38,0.29-1.37,1.37c0.06,3.87-0.02,7.75,0.02,11.62c0.01,0.98-0.27,1.34-1.28,1.3c-1.8-0.07-3.6-0.05-5.4-0.01
		c-0.98,0.02-1.29-0.33-1.29-1.32C567.09,105.61,567.06,99.93,567.06,94.26z"/>
	<path class="st0" d="M197.68,112.56c-3.4,0-6.8,0-10.19,0c-4.4,0-7.63-3.24-7.63-7.63c0-4.71,0-9.43,0-14.14
		c0.01-4.14,2.96-7.36,7.1-7.49c5.23-0.17,10.47-0.18,15.7,0.01c3.92,0.14,6.9,3.37,6.92,7.3c0.02,3.36-0.03,6.71,0.02,10.07
		c0.01,0.88-0.2,1.13-1.12,1.13c-6.6-0.04-13.19,0-19.79-0.05c-0.98-0.01-1.18,0.29-1.15,1.19c0.07,1.92,0.02,1.92,1.97,1.92
		c6.32,0,12.63,0.02,18.95-0.02c0.87,0,1.18,0.16,1.14,1.11c-0.08,1.87-0.06,3.75-0.01,5.63c0.02,0.77-0.19,1.01-1,1
		C204.95,112.54,201.31,112.56,197.68,112.56z M194.69,95.04c1.4,0,2.8,0,4.19,0c3.03,0,3.01,0,2.99-3.07c0-0.79-0.22-1-1.01-0.99
		c-3.44,0.05-6.87,0-10.31,0.03c-0.98,0.01-2.32-0.46-2.84,0.21c-0.49,0.63-0.1,1.91-0.17,2.9c-0.05,0.72,0.14,0.97,0.91,0.95
		C190.53,95,192.61,95.04,194.69,95.04z"/>
	<path class="st0" d="M120.99,83.29c2.6,0,5.19-0.08,7.79,0.02c3.83,0.14,6.88,3.33,6.91,7.17c0.03,4.95,0.02,9.9,0,14.85
		c-0.02,3.89-3.26,7.18-7.16,7.22c-5.11,0.05-10.23,0.04-15.34,0c-3.94-0.03-7.2-3.36-7.21-7.3c-0.02-4.91-0.02-9.82,0-14.73
		c0.02-3.83,3.07-7.01,6.87-7.23c0.28-0.02,0.56-0.05,0.84-0.05c2.44,0,4.87,0,7.31,0C120.99,83.25,120.99,83.27,120.99,83.29z
		 M120.79,104.87c2.08,0,4.16-0.03,6.23,0.02c0.72,0.02,0.97-0.18,0.96-0.93c-0.03-4.03-0.03-8.07,0-12.1
		c0-0.68-0.19-0.88-0.88-0.87c-4.2,0.03-8.39,0.03-12.59,0c-0.68-0.01-0.87,0.18-0.86,0.86c0.03,4.03,0.04,8.07-0.01,12.1
		c-0.01,0.85,0.3,0.96,1.03,0.95C116.71,104.84,118.75,104.86,120.79,104.87z"/>
	<path class="st1" d="M462.03,76.14c0.36,0,0.72,0,1.08,0c3.39,0,3.35,0.03,5,2.92c4.24,7.4,8.53,14.78,12.81,22.17
		c0.19,0.33,0.3,0.83,0.76,0.85c0.55,0.03,0.62-0.55,0.82-0.91c3.97-6.83,7.92-13.66,11.87-20.5c0.7-1.21,1.37-2.43,2.05-3.65
		c0.31-0.55,0.67-0.91,1.4-0.89c2.4,0.05,4.8,0.05,7.19,0.03c0.94-0.01,0.88,0.29,0.48,0.97c-5.43,9.34-10.84,18.69-16.25,28.04
		c-1.3,2.24-2.59,4.49-3.85,6.76c-0.28,0.51-0.65,0.64-1.16,0.64c-1.72,0-3.44-0.01-5.15,0c-0.58,0-0.91-0.22-1.21-0.75
		c-5.18-9.03-10.38-18.04-15.59-27.05c-1.5-2.59-2.99-5.18-4.53-7.74c-0.46-0.77-0.15-0.88,0.55-0.87c1.24,0.02,2.48,0.01,3.72,0.01
		C462.03,76.15,462.03,76.14,462.03,76.14z"/>
	<path class="st0" d="M217.45,97.88c0-4.55,0.01-9.11-0.01-13.66c0-0.64,0.03-1.01,0.86-1.01c7.27,0.05,14.55-0.01,21.82,0.1
		c3.96,0.06,6.98,3.2,7.01,7.18c0.06,7.07,0,14.14,0.03,21.21c0,0.68-0.17,0.89-0.86,0.87c-1.92-0.04-3.84-0.06-5.76,0.01
		c-0.89,0.03-1.14-0.19-1.14-1.11c0.04-6.39-0.01-12.78,0.05-19.17c0.01-1.12-0.31-1.36-1.37-1.34c-3.88,0.06-7.76,0.06-11.63,0
		c-1-0.02-1.33,0.16-1.32,1.27c0.06,6.39,0.01,12.78,0.05,19.17c0.01,0.95-0.24,1.22-1.19,1.18c-1.84-0.08-3.68-0.06-5.51,0
		c-0.82,0.03-1.07-0.19-1.06-1.04C217.47,106.99,217.45,102.43,217.45,97.88z"/>
	<path class="st0" d="M161.13,83.23c3.64,0,7.27,0.02,10.91-0.02c0.82-0.01,1.11,0.2,1.08,1.06c-0.06,1.87-0.07,3.76,0,5.63
		c0.03,0.9-0.23,1.13-1.13,1.12c-6.59-0.04-13.19-0.01-19.79-0.04c-0.82,0-1.17,0.08-1.15,1.06c0.07,3.95,0.05,7.91,0.01,11.86
		c-0.01,0.79,0.22,0.99,1,0.98c6.63-0.03,13.27,0,19.91-0.04c0.85,0,1.19,0.13,1.15,1.09c-0.09,1.91-0.05,3.83-0.01,5.75
		c0.01,0.66-0.15,0.89-0.86,0.89c-7.27-0.02-14.55,0.04-21.82-0.03c-3.81-0.04-7.02-3.41-7.04-7.23c-0.03-4.95-0.03-9.9,0-14.86
		c0.02-3.8,3.11-6.96,6.95-7.17c0.32-0.02,0.64-0.06,0.96-0.06C154.58,83.22,157.86,83.23,161.13,83.23z"/>
	<path class="st0" d="M74.12,95c0,3.35,0,6.71,0,10.06c0,4.26-3.21,7.48-7.49,7.5c-4.96,0.01-9.91,0.02-14.87,0
		c-4.08-0.01-7.36-3.32-7.36-7.41c0-6.91,0.02-13.82-0.02-20.73c0-0.9,0.17-1.27,1.17-1.22c1.79,0.09,3.6,0.07,5.39,0
		c0.94-0.04,1.2,0.22,1.2,1.18c-0.04,6.39,0,12.78-0.05,19.17c-0.01,1.02,0.19,1.36,1.3,1.34c4-0.08,7.99-0.06,11.99-0.01
		c0.85,0.01,1.06-0.23,1.05-1.06c-0.03-6.47,0.01-12.94-0.05-19.41c-0.01-1.04,0.3-1.25,1.26-1.21c1.88,0.08,3.76,0.06,5.63,0.01
		c0.7-0.02,0.85,0.23,0.85,0.88C74.1,87.73,74.12,91.37,74.12,95z"/>
	<path class="st0" d="M340.64,94.95c0,3.4,0.01,6.79,0,10.19c-0.01,4.18-3.24,7.41-7.44,7.43c-4.96,0.02-9.91,0.02-14.87,0
		c-4.12-0.01-7.39-3.25-7.4-7.36c-0.02-6.99,0.01-13.98-0.02-20.97c0-0.77,0.17-1.05,0.99-1.02c1.88,0.06,3.76,0.07,5.64-0.01
		c0.91-0.04,1.13,0.23,1.13,1.13c-0.04,6.43,0,12.86-0.04,19.29c-0.01,0.98,0.22,1.28,1.23,1.27c4-0.06,8-0.06,11.99,0
		c0.91,0.01,1.12-0.23,1.11-1.12c-0.04-6.43,0.01-12.86-0.05-19.29c-0.01-1.1,0.31-1.32,1.32-1.27c1.84,0.08,3.68,0.07,5.52,0.01
		c0.77-0.02,0.92,0.24,0.92,0.95C340.62,87.76,340.64,91.35,340.64,94.95z"/>
	<path class="st0" d="M255.02,90.39c0-4.91,0.03-9.82-0.03-14.73c-0.01-0.99,0.3-1.21,1.22-1.17c1.8,0.07,3.6,0.07,5.39,0
		c0.88-0.03,1.19,0.17,1.16,1.1c-0.07,2.19,0.02,4.39-0.04,6.59c-0.02,0.86,0.26,1.08,1.09,1.07c2.92-0.04,5.83,0.01,8.75-0.03
		c0.8-0.01,1.12,0.17,1.09,1.05c-0.07,1.91-0.06,3.83,0,5.75c0.02,0.79-0.21,1.02-0.99,1.01c-2.96-0.04-5.91,0.01-8.87-0.04
		c-0.84-0.01-1.07,0.22-1.06,1.06c0.04,3.95,0.04,7.9,0,11.86c-0.01,0.79,0.23,1.01,1.02,0.99c2.92-0.05,5.83,0.01,8.75-0.04
		c0.84-0.01,1.2,0.13,1.16,1.09c-0.09,1.87-0.06,3.75-0.01,5.63c0.02,0.74-0.13,1.04-0.97,1.02c-3.44-0.05-6.87-0.01-10.31-0.03
		c-3.99-0.02-7.31-3.33-7.33-7.32C255,100.29,255.02,95.34,255.02,90.39z"/>
	<path class="st0" d="M81.02,90.39c0-4.91,0.03-9.82-0.03-14.73c-0.01-0.99,0.3-1.21,1.22-1.17c1.8,0.07,3.6,0.07,5.39,0
		c0.88-0.03,1.19,0.17,1.16,1.1c-0.07,2.19,0.02,4.39-0.04,6.59c-0.02,0.86,0.26,1.08,1.09,1.07c2.92-0.04,5.83,0.01,8.75-0.03
		c0.8-0.01,1.12,0.17,1.09,1.05c-0.07,1.91-0.06,3.83,0,5.75c0.02,0.79-0.21,1.02-0.99,1.01c-2.96-0.04-5.91,0.01-8.87-0.04
		c-0.84-0.01-1.07,0.22-1.06,1.06c0.04,3.95,0.04,7.9,0,11.86c-0.01,0.79,0.23,1.01,1.02,0.99c2.92-0.05,5.83,0.01,8.75-0.04
		c0.84-0.01,1.2,0.13,1.16,1.09c-0.09,1.87-0.06,3.75-0.01,5.63c0.02,0.74-0.13,1.04-0.97,1.02c-3.44-0.05-6.87-0.01-10.31-0.03
		c-3.99-0.02-7.31-3.33-7.33-7.32C81,100.29,81.02,95.34,81.02,90.39z"/>
	<path class="st0" d="M280.63,100.84c0-3.39,0-6.79,0-10.18c0.01-3.94,3.07-7.26,7.01-7.35c5.23-0.12,10.47-0.05,15.7-0.1
		c0.72-0.01,0.85,0.27,0.84,0.9c-0.03,2-0.05,3.99,0.01,5.99c0.02,0.78-0.27,0.91-0.96,0.9c-4.6-0.03-9.19,0.01-13.79-0.03
		c-0.89-0.01-1.13,0.19-1.13,1.1c0.04,6.47,0,12.94,0.05,19.4c0.01,0.9-0.22,1.14-1.11,1.11c-1.84-0.07-3.68-0.06-5.51,0
		c-0.86,0.03-1.15-0.15-1.13-1.08C280.67,107.95,280.63,104.4,280.63,100.84z"/>
	<path class="st1" d="M552.54,94.36c0-5.63,0.03-11.25-0.03-16.88c-0.01-1.15,0.37-1.43,1.45-1.38c1.79,0.08,3.59,0.05,5.39,0.01
		c0.7-0.01,0.98,0.19,0.98,0.95c-0.03,11.49-0.03,22.98-0.02,34.47c0,0.8-0.29,1.06-1.04,1.05c-1.84-0.02-3.67-0.04-5.51,0.01
		c-1.02,0.03-1.26-0.41-1.25-1.36C552.55,105.61,552.53,99.99,552.54,94.36C552.53,94.36,552.54,94.36,552.54,94.36z"/>
	<path class="st1" d="M525.24,63.92c0.48,0,0.96,0.05,1.44-0.01c1.18-0.15,2.09,0.1,2.59,1.32c0.35,0.86,0.83,0.63,1.1-0.05
		c0.45-1.14,1.29-1.34,2.39-1.28c1.39,0.07,2.79,0.03,4.19,0.01c0.66-0.01,1.06,0.05,0.58,0.85c-1.56,2.59-3.1,5.2-4.64,7.81
		c-0.31,0.53-0.72,0.78-1.37,0.74c-1.11-0.06-2.24-0.09-3.35-0.03c-0.62,0.03-0.98-0.19-1.27-0.67c-1.49-2.5-3-4.98-4.47-7.49
		c-0.63-1.08-0.56-1.17,0.66-1.19C523.8,63.92,524.52,63.93,525.24,63.92C525.24,63.93,525.24,63.92,525.24,63.92z"/>
	<path class="st1" d="M558.96,62.73c0.96,0,1.92,0.09,2.87-0.03c0.92-0.11,0.93,0.34,0.77,0.96c-0.74,2.93-1.5,5.86-2.23,8.79
		c-0.13,0.54-0.48,0.56-0.89,0.56c-2.07,0-4.15-0.01-6.22,0c-0.6,0-0.95-0.19-0.8-0.83c0.72-2.98,1.46-5.95,2.2-8.92
		c0.13-0.51,0.56-0.51,0.96-0.52c1.12-0.01,2.23,0,3.35,0C558.96,62.74,558.96,62.73,558.96,62.73z"/>
	<path class="st0" d="M455.28,57.11c2.05-0.57,3.87-1.02,5.54-1.88c1.14-0.59,2.45-1.15,2.55-2.61c0.1-1.49-1.16-2.23-2.26-2.84
		c-4.3-2.38-8.87-4.18-13.47-5.89c-12.72-4.74-25.86-8.08-38.98-11.49c-2.62-0.68-5.26-1.31-7.88-2.01
		c-0.49-0.13-0.92-0.1-1.39,0.02c-15.13,4.05-30.31,7.94-45.49,11.77c-3.67,0.93-7.38,0.64-11.09,0.36
		c-0.84-0.06-1.73,0.01-2.8-0.41c6.56-1.63,12.81-3.36,19.03-5.19c4.47-1.31,8.94-2.64,13.43-3.9c1.77-0.5,2.98-1.63,3.99-3.06
		c1.32-1.87,2.24-3.95,3.16-6.03c0.36-0.81-0.17-0.82-0.68-0.97c-6.72-2.04-13.54-3.71-20.39-5.2c-13.7-2.98-27.52-5.26-41.42-7.12
		c-10.03-1.34-20.09-2.32-30.23-2.23c-9.11,0.08-17.92,1.88-26.63,4.35c-15.7,4.45-31.14,9.67-46.08,16.27
		c-1.56,0.69-3.1,1.42-4.74,1.97c2.66-1.5,5.3-3.03,7.98-4.5c13.69-7.5,27.67-14.39,42.32-19.84c6.32-2.35,12.72-4.46,19.4-5.55
		c4.58-0.75,9.22-0.99,13.85-1.09c16.89-0.36,33.58,1.5,50.14,4.68c14.74,2.83,29.21,6.76,43.75,10.41
		c14.93,3.75,29.83,7.57,44.7,11.52c6.9,1.83,13.78,3.73,20.84,4.88c3.71,0.6,7.43,1.13,11.18,1.32c1.31,0.07,2.31,0.49,3.27,1.41
		c6.47,6.16,11.41,13.42,15.47,21.31c0.78,1.52,1.45,3.1,2.2,4.64c0.29,0.59,0.22,0.82-0.48,0.9c-6.05,0.67-12.1,1.05-18.19,0.97
		c-0.27,0-0.56-0.04-0.81-0.13C461.71,60.71,458.5,59.11,455.28,57.11z"/>
	<path class="st2" d="M98.45,61.28c-1.5,1.17-3.13,1.97-4.8,2.68c-5.82,2.43-11.91,3.91-18.1,5c-2.04,0.36-4.09,0.69-6.14,1.04
		c-1.11,0.19-2.23,0.22-3.34,0.03c-0.55-0.1-1.15-0.24-1.34-0.86c-0.21-0.64,0.39-0.91,0.74-1.25c4.74-4.5,9.98-8.32,15.65-11.57
		c7.84-4.48,16.15-7.84,24.77-10.48c8.22-2.52,16.6-4.4,25.09-5.75c7.02-1.12,14.08-1.97,21.17-2.59
		c12.16-1.06,24.34-1.4,36.53-1.36c5.28,0.02,10.56,0.09,15.83,0.26c7.79,0.25,15.57,0.59,23.36,0.93
		c6.75,0.29,13.49,0.63,20.24,0.97c5.91,0.3,11.81,0.6,17.72,0.97c9.45,0.6,18.9,1.18,28.34,1.94c4.89,0.39,9.8,0.62,14.66,1.55
		c-2.77,0-5.54-0.01-8.31,0c-10.15,0.05-20.31,0.14-30.46,0.15c-9.64,0.01-19.27,0.21-28.9,0.43c-13.07,0.3-26.13,0.68-39.19,1.16
		c-9.26,0.34-18.52,0.84-27.77,1.38c-9.73,0.56-19.47,1.17-29.15,2.37c-9.16,1.13-18.26,2.62-27.31,4.46
		c-7.64,1.56-15.23,3.26-22.69,5.51c-1.57,0.47-3.1,1.05-4.58,1.76c-0.39,0.19-0.9,0.38-0.83,0.9c0.07,0.52,0.62,0.41,0.99,0.47
		c1.91,0.29,3.83,0.13,5.74,0.01C97.05,61.36,97.75,61.32,98.45,61.28z"/>
	<g>
		<path class="st0" d="M356.61,107.76"/>
	</g>
</g>
</svg>
